<?xml version="1.0" encoding="UTF-8" ?>
<!DOCTYPE svg PUBLIC "-//W3C//DTD SVG 1.1//EN" "http://www.w3.org/Graphics/SVG/1.1/DTD/svg11.dtd">
<svg width="283pt" height="229pt" viewBox="0 0 283 229" version="1.1" xmlns="http://www.w3.org/2000/svg">
<path fill="#ec1b16" d=" M 0.00 0.00 L 283.00 0.00 L 283.00 229.00 L 0.00 229.00 L 0.00 0.00 Z" />
<path fill="#8b8c90" d=" M 138.30 2.18 C 140.81 4.73 143.36 7.23 145.91 9.75 C 146.60 9.55 147.99 9.14 148.68 8.93 C 152.11 11.27 155.73 13.47 158.28 16.83 C 159.60 18.75 162.06 18.89 164.07 19.63 C 167.10 20.36 169.30 22.74 172.12 23.90 C 175.54 24.90 179.11 25.24 182.59 26.02 C 184.46 28.50 186.01 31.33 188.46 33.29 C 195.49 34.92 202.79 35.20 209.80 36.93 C 213.56 39.09 215.42 43.71 219.61 45.37 C 229.10 49.84 238.47 54.58 247.99 58.99 C 248.01 65.37 247.99 71.76 248.00 78.14 C 246.50 78.13 245.00 78.11 243.50 78.11 C 243.48 77.33 243.42 75.78 243.40 75.01 C 232.67 72.23 221.35 70.29 211.97 64.00 C 207.27 60.95 203.60 55.54 197.47 55.52 C 196.38 53.03 195.61 50.31 193.93 48.13 C 190.74 45.54 186.83 44.03 183.37 41.85 C 187.66 42.53 191.95 43.26 196.19 44.27 C 198.48 47.67 202.50 48.62 206.21 49.62 C 206.56 47.82 206.89 46.03 207.23 44.23 C 210.12 47.54 213.09 51.03 217.24 52.80 C 226.29 56.87 235.04 61.60 244.17 65.48 C 243.35 63.83 242.41 62.11 240.59 61.39 C 232.11 57.19 223.47 53.27 215.03 48.98 C 210.95 46.92 209.05 41.42 204.07 41.11 C 197.53 40.07 190.97 39.23 184.47 37.97 C 182.62 35.49 181.09 32.60 178.54 30.75 C 174.67 29.49 170.25 29.69 166.84 27.18 C 163.54 24.68 159.38 24.02 155.72 22.32 C 153.16 19.75 150.91 16.85 147.94 14.71 C 146.62 14.96 145.30 15.22 143.98 15.47 C 142.23 13.75 140.48 12.02 138.72 10.30 C 135.81 13.52 132.49 16.32 128.99 18.87 C 123.42 22.99 119.33 28.65 114.60 33.62 C 112.23 36.43 107.90 35.76 105.39 38.41 C 99.82 43.84 92.33 46.34 85.31 49.29 C 72.71 54.51 60.09 59.70 47.60 65.17 C 47.83 74.19 47.30 83.21 47.94 92.21 C 57.44 92.68 65.99 87.97 74.88 85.40 C 73.53 87.61 72.16 89.82 70.87 92.06 C 72.74 90.32 74.56 88.52 76.35 86.69 C 79.85 86.68 83.12 87.86 85.99 89.80 C 83.08 95.22 81.20 101.10 79.75 107.06 C 67.62 109.04 55.31 110.27 43.01 109.68 C 43.03 93.34 42.93 76.99 43.07 60.65 C 48.33 59.53 53.05 56.91 57.99 54.92 C 68.76 50.40 79.56 45.94 90.34 41.46 C 95.33 39.41 100.23 36.71 103.37 32.17 C 105.47 31.71 107.57 31.24 109.67 30.80 C 113.07 27.13 116.32 23.33 119.74 19.68 C 123.63 15.51 128.84 12.86 132.66 8.63 C 134.60 6.53 136.41 4.32 138.30 2.18 Z" />
<path fill="#ffffff" d=" M 128.99 18.87 C 132.49 16.32 135.81 13.52 138.72 10.30 C 140.48 12.02 142.23 13.75 143.98 15.47 C 145.30 15.22 146.62 14.96 147.94 14.71 C 150.91 16.85 153.16 19.75 155.72 22.32 C 159.38 24.02 163.54 24.68 166.84 27.18 C 170.25 29.69 174.67 29.49 178.54 30.75 C 181.09 32.60 182.62 35.49 184.47 37.97 C 190.97 39.23 197.53 40.07 204.07 41.11 C 209.05 41.42 210.95 46.92 215.03 48.98 C 223.47 53.27 232.11 57.19 240.59 61.39 C 242.41 62.11 243.35 63.83 244.17 65.48 C 235.04 61.60 226.29 56.87 217.24 52.80 C 213.09 51.03 210.12 47.54 207.23 44.23 C 206.89 46.03 206.56 47.82 206.21 49.62 C 202.50 48.62 198.48 47.67 196.19 44.27 C 191.95 43.26 187.66 42.53 183.37 41.85 C 186.83 44.03 190.74 45.54 193.93 48.13 C 195.61 50.31 196.38 53.03 197.47 55.52 C 203.60 55.54 207.27 60.95 211.97 64.00 C 221.35 70.29 232.67 72.23 243.40 75.01 C 243.42 75.78 243.48 77.33 243.50 78.11 C 230.18 78.02 216.91 79.56 203.73 81.42 C 190.66 62.93 168.29 51.65 145.64 52.25 C 143.71 50.56 141.75 48.91 139.81 47.24 C 141.88 47.63 143.95 48.01 146.03 48.39 C 144.07 45.47 142.11 42.56 140.13 39.66 C 140.50 38.71 140.88 37.77 141.26 36.82 C 145.12 39.09 149.07 41.20 153.06 43.24 C 152.84 41.39 152.62 39.54 152.41 37.68 C 158.18 37.71 162.52 41.76 167.31 44.35 C 164.39 40.12 161.21 36.08 158.33 31.81 C 162.21 32.95 165.74 34.94 168.79 37.58 C 166.96 34.26 165.26 30.87 163.46 27.53 C 160.36 26.58 156.56 26.43 154.42 23.65 C 152.45 21.34 150.30 19.19 147.90 17.32 C 146.63 17.60 145.35 17.89 144.08 18.17 C 143.64 17.85 142.77 17.21 142.33 16.89 C 140.01 23.90 133.53 29.28 133.67 37.06 C 133.43 38.93 133.54 40.92 132.80 42.68 C 131.78 44.11 130.44 45.26 129.19 46.49 C 128.78 49.33 128.39 52.17 128.05 55.02 C 112.44 59.57 98.63 69.81 89.70 83.38 C 85.48 81.93 81.26 80.46 77.05 78.98 C 76.82 80.27 76.60 81.55 76.37 82.84 C 79.73 84.88 83.38 86.39 87.31 86.84 C 86.86 87.82 86.42 88.81 85.99 89.80 C 83.12 87.86 79.85 86.68 76.35 86.69 C 74.56 88.52 72.74 90.32 70.87 92.06 C 72.16 89.82 73.53 87.61 74.88 85.40 C 65.99 87.97 57.44 92.68 47.94 92.21 C 47.30 83.21 47.83 74.19 47.60 65.17 C 60.09 59.70 72.71 54.51 85.31 49.29 C 92.33 46.34 99.82 43.84 105.39 38.41 C 107.90 35.76 112.23 36.43 114.60 33.62 C 119.33 28.65 123.42 22.99 128.99 18.87 Z" />
<path fill="#8b8c90" d=" M 142.33 16.89 C 142.77 17.21 143.64 17.85 144.08 18.17 C 145.35 17.89 146.63 17.60 147.90 17.32 C 150.30 19.19 152.45 21.34 154.42 23.65 C 156.56 26.43 160.36 26.58 163.46 27.53 C 165.26 30.87 166.96 34.26 168.79 37.58 C 165.74 34.94 162.21 32.95 158.33 31.81 C 161.21 36.08 164.39 40.12 167.31 44.35 C 162.52 41.76 158.18 37.71 152.41 37.68 C 152.62 39.54 152.84 41.39 153.06 43.24 C 149.07 41.20 145.12 39.09 141.26 36.82 C 140.88 37.77 140.50 38.71 140.13 39.66 C 142.11 42.56 144.07 45.47 146.03 48.39 C 143.95 48.01 141.88 47.63 139.81 47.24 C 141.75 48.91 143.71 50.56 145.64 52.25 C 139.70 52.55 133.77 53.39 128.05 55.02 C 128.39 52.17 128.78 49.33 129.19 46.49 C 130.44 45.26 131.78 44.11 132.80 42.68 C 133.54 40.92 133.43 38.93 133.67 37.06 C 133.53 29.28 140.01 23.90 142.33 16.89 Z" />
<path fill="#8b8c90" d=" M 127.20 29.16 C 129.26 27.68 131.32 26.19 133.42 24.75 C 132.23 28.39 130.41 31.92 126.77 33.61 C 126.91 32.12 127.05 30.64 127.20 29.16 Z" />
<path fill="#8b8c90" d=" M 99.93 45.86 C 102.35 44.20 104.71 42.46 107.19 40.90 C 105.88 46.73 100.35 49.47 96.05 52.84 C 91.16 56.58 84.52 55.11 79.39 58.25 C 73.74 60.65 67.61 61.79 61.61 62.98 C 69.76 59.26 78.05 55.83 86.22 52.17 C 90.79 50.06 95.76 48.77 99.93 45.86 Z" />
<path fill="#8b8c90" d=" M 110.13 47.11 C 114.55 45.37 119.54 45.61 124.08 44.14 C 124.96 45.78 124.15 46.96 122.55 47.60 C 120.73 48.44 120.23 50.45 119.66 52.19 C 114.45 53.20 108.90 52.68 104.01 55.00 C 99.90 56.92 95.93 59.14 91.75 60.90 C 97.75 56.13 104.15 51.90 110.13 47.11 Z" />
<path fill="#161314" d=" M 128.05 55.02 C 133.77 53.39 139.70 52.55 145.64 52.25 C 168.29 51.65 190.66 62.93 203.73 81.42 C 202.18 81.66 200.64 81.90 199.10 82.15 C 196.24 80.85 193.41 79.09 190.21 78.86 C 187.40 79.62 184.88 81.14 182.28 82.40 C 182.34 83.09 182.47 84.46 182.54 85.14 C 181.95 85.27 180.78 85.53 180.20 85.66 C 180.14 84.26 180.08 82.86 180.02 81.46 C 173.33 76.67 165.99 72.93 158.70 69.17 C 149.48 73.63 140.11 77.78 130.77 82.02 C 130.80 86.87 130.79 91.72 130.79 96.58 C 119.11 98.96 107.57 102.13 95.78 103.95 C 94.69 102.21 92.47 103.14 91.87 104.77 C 90.08 105.18 88.29 105.57 86.50 105.93 C 89.68 103.02 94.03 101.11 95.84 96.97 C 99.46 90.08 104.22 83.89 109.02 77.80 C 108.72 74.23 108.54 70.65 108.49 67.07 C 95.31 76.62 85.81 90.93 82.13 106.80 C 81.34 106.88 80.54 106.97 79.75 107.06 C 81.20 101.10 83.08 95.22 85.99 89.80 C 86.42 88.81 86.86 87.82 87.31 86.84 L 87.93 85.46 L 87.87 86.12 C 88.48 85.21 89.08 84.29 89.70 83.38 C 98.63 69.81 112.44 59.57 128.05 55.02 Z" />
<path fill="#ffffff" d=" M 110.87 65.42 C 123.02 57.69 137.64 53.52 152.05 54.88 C 154.72 56.19 158.46 58.54 157.68 62.02 C 157.56 63.84 157.33 65.65 157.09 67.46 C 147.73 71.58 138.62 76.34 129.08 80.00 C 123.13 78.88 117.20 77.64 111.17 77.02 C 110.86 73.16 110.73 69.29 110.87 65.42 Z" />
<path fill="#ffffff" d=" M 156.75 55.23 C 162.56 56.23 168.42 57.50 173.73 60.15 C 169.47 59.33 165.28 57.99 160.92 57.84 C 159.03 58.05 158.04 56.26 156.75 55.23 Z" />
<path fill="#ffffff" d=" M 183.99 65.71 C 190.14 69.50 195.29 74.69 199.95 80.16 C 196.63 78.17 192.12 77.54 190.20 73.82 C 188.34 70.96 186.09 68.39 183.99 65.71 Z" />
<path fill="#ffffff" d=" M 108.49 67.07 C 108.54 70.65 108.72 74.23 109.02 77.80 C 104.22 83.89 99.46 90.08 95.84 96.97 C 94.03 101.11 89.68 103.02 86.50 105.93 C 85.04 106.21 83.59 106.50 82.13 106.80 C 85.81 90.93 95.31 76.62 108.49 67.07 Z" />
<path fill="#ffffff" d=" M 130.77 82.02 C 140.11 77.78 149.48 73.63 158.70 69.17 C 165.99 72.93 173.33 76.67 180.02 81.46 C 180.08 82.86 180.14 84.26 180.20 85.66 C 163.65 88.93 147.24 92.88 130.79 96.58 C 130.79 91.72 130.80 86.87 130.77 82.02 Z" />
<path fill="#8b8c90" d=" M 77.05 78.98 C 81.26 80.46 85.48 81.93 89.70 83.38 C 89.08 84.29 88.48 85.21 87.87 86.12 L 87.93 85.46 L 87.31 86.84 C 83.38 86.39 79.73 84.88 76.37 82.84 C 76.60 81.55 76.82 80.27 77.05 78.98 Z" />
<path fill="#ffffff" d=" M 182.28 82.40 C 184.88 81.14 187.40 79.62 190.21 78.86 C 193.41 79.09 196.24 80.85 199.10 82.15 C 193.58 83.16 188.06 84.14 182.54 85.14 C 182.47 84.46 182.34 83.09 182.28 82.40 Z" />
<path fill="#161314" d=" M 113.97 105.78 C 154.68 97.01 195.13 85.31 236.95 83.38 C 247.74 83.08 258.97 83.48 269.04 87.78 C 273.57 89.60 277.41 93.19 279.09 97.82 C 279.65 100.66 279.29 103.58 279.40 106.45 C 278.94 106.24 278.00 105.81 277.53 105.59 C 277.15 105.12 276.38 104.18 276.00 103.72 C 277.26 105.93 279.12 108.04 279.13 110.73 C 278.11 109.74 277.10 108.73 276.11 107.72 C 277.83 110.13 278.95 112.87 280.19 115.54 C 279.36 114.78 277.71 113.26 276.88 112.49 C 278.81 115.40 280.04 118.96 279.46 122.47 C 279.44 122.89 279.39 123.74 279.37 124.17 C 279.22 125.62 280.12 127.60 278.78 128.67 C 277.62 128.64 276.75 127.61 275.72 127.18 C 276.92 129.32 279.40 131.02 279.14 133.73 C 278.14 132.76 277.14 131.80 276.15 130.83 C 277.96 133.27 279.08 136.11 280.27 138.89 C 279.38 137.99 277.60 136.21 276.72 135.32 C 279.50 138.67 279.45 142.98 279.83 147.07 C 277.19 141.24 271.63 137.38 265.94 134.85 C 255.55 130.56 244.07 130.75 233.04 131.16 C 191.61 133.77 151.51 145.19 111.11 153.91 C 90.98 158.20 70.64 162.50 49.97 162.69 C 40.59 162.40 30.97 162.15 22.01 159.04 C 17.83 157.63 14.80 154.03 13.38 149.94 C 15.36 151.57 17.35 153.20 19.51 154.59 C 17.41 152.28 15.08 150.09 13.87 147.14 C 14.59 145.47 13.90 143.70 13.62 142.02 C 14.73 143.06 15.86 144.09 17.00 145.10 C 17.00 146.92 17.00 148.75 17.00 150.58 C 21.19 151.60 25.38 153.64 29.79 152.87 C 34.70 150.84 35.82 144.78 35.99 140.04 C 36.13 133.24 35.14 125.10 29.11 120.87 C 25.30 118.78 20.94 117.34 16.56 117.36 L 15.97 117.36 C 14.98 115.31 14.03 113.24 13.24 111.11 C 14.13 111.92 15.90 113.55 16.79 114.37 C 15.64 112.28 14.45 110.22 13.32 108.11 C 15.49 109.88 17.72 111.59 20.10 113.07 C 17.04 110.31 14.15 107.23 13.10 103.11 C 20.31 112.43 32.92 114.06 43.88 114.86 C 67.57 115.86 90.93 110.64 113.97 105.78 Z" />
<path fill="#ffffff" d=" M 236.19 90.61 C 238.50 90.58 240.82 90.52 243.14 90.47 C 245.84 101.66 248.18 112.95 251.01 124.11 C 248.41 124.14 245.80 124.13 243.20 124.15 C 242.87 121.94 242.50 119.73 242.17 117.52 C 240.38 117.65 238.58 117.75 236.79 117.85 C 236.45 120.02 236.10 122.19 235.77 124.37 C 233.34 124.38 230.92 124.39 228.50 124.44 C 231.07 113.17 233.57 101.88 236.19 90.61 Z" />
<path fill="#ffffff" d=" M 210.53 92.90 C 212.90 92.59 215.26 92.23 217.63 91.92 C 217.60 100.87 217.63 109.83 217.61 118.79 C 220.73 118.31 223.86 118.00 227.00 117.69 C 227.00 120.07 226.99 122.44 227.00 124.82 C 221.50 125.27 216.04 126.07 210.55 126.59 C 210.54 115.36 210.59 104.13 210.53 92.90 Z" />
<path fill="#ffffff" d=" M 254.74 103.39 C 253.52 99.29 254.70 93.79 259.12 92.18 C 262.92 91.16 266.42 93.30 269.46 95.31 C 269.46 98.16 269.47 101.01 269.57 103.86 C 267.73 101.96 265.97 99.47 263.11 99.17 C 261.51 99.78 260.51 101.76 261.78 103.19 C 264.27 106.67 268.66 108.59 270.33 112.72 C 272.10 117.37 271.38 124.05 266.31 126.30 C 261.97 128.40 257.58 125.17 254.18 122.71 C 254.21 119.76 254.20 116.81 254.07 113.86 C 256.29 116.01 258.35 119.51 261.86 119.22 C 264.48 119.01 264.76 115.38 263.21 113.81 C 260.41 110.34 255.96 107.95 254.74 103.39 Z" />
<path fill="#ffffff" d=" M 193.22 97.23 C 196.19 93.74 201.23 93.25 205.36 94.69 C 205.33 97.28 205.32 99.87 205.40 102.46 C 202.86 100.66 198.97 100.14 197.16 103.22 C 194.17 109.08 194.39 116.52 197.19 122.42 C 200.45 122.07 199.97 118.64 200.12 116.25 C 199.57 116.33 198.48 116.49 197.93 116.58 C 197.93 114.45 197.94 112.32 197.94 110.19 C 200.76 109.85 203.54 109.27 206.35 108.84 C 206.32 114.92 206.32 121.00 206.35 127.09 C 205.32 127.30 204.29 127.54 203.26 127.79 C 202.83 127.35 201.97 126.46 201.54 126.02 C 199.78 127.71 197.81 130.04 195.05 129.19 C 190.70 128.26 189.25 123.32 188.61 119.50 C 187.46 111.95 187.99 103.25 193.22 97.23 Z" />
<path fill="#ffffff" d=" M 177.95 98.58 C 180.33 98.11 182.71 97.65 185.06 97.02 C 185.01 105.00 185.15 112.99 185.00 120.98 C 184.95 125.34 183.04 130.06 179.02 132.17 C 176.12 133.64 172.45 134.49 169.50 132.71 C 166.72 130.81 166.29 127.12 166.24 124.03 C 166.18 116.38 166.33 108.72 166.18 101.07 C 168.49 100.54 170.81 100.04 173.14 99.60 C 173.18 107.40 173.04 115.20 173.19 123.00 C 173.12 124.54 173.81 125.94 174.92 126.99 C 177.08 126.36 178.19 124.21 177.99 122.04 C 177.98 114.22 177.94 106.40 177.95 98.58 Z" />
<path fill="#ec1b16" d=" M 278.21 99.42 C 278.84 100.02 278.84 100.02 278.21 99.42 Z" />
<path fill="#161314" d=" M 239.49 100.61 C 240.08 104.10 240.62 107.61 241.21 111.11 C 240.09 111.32 238.97 111.54 237.86 111.75 C 238.42 108.04 238.80 104.30 239.49 100.61 Z" />
<path fill="#ffffff" d=" M 91.87 104.77 C 92.47 103.14 94.69 102.21 95.78 103.95 L 95.49 104.52 C 94.29 105.42 93.08 105.51 91.87 104.77 Z" />
<path fill="#ffffff" d=" M 150.40 104.22 C 153.35 103.03 157.17 103.03 159.56 105.40 C 162.32 108.22 163.17 112.30 163.31 116.12 C 163.73 122.98 162.60 130.55 157.64 135.68 C 154.70 138.63 149.25 140.16 146.01 136.83 C 141.91 132.40 141.80 125.81 142.13 120.12 C 142.71 114.12 144.81 107.37 150.40 104.22 Z" />
<path fill="#ffffff" d=" M 121.32 111.29 C 125.58 110.55 129.74 108.68 134.13 109.10 C 138.03 110.04 139.87 114.13 140.31 117.78 C 141.42 124.99 140.76 133.10 136.14 139.05 C 132.57 143.54 126.44 143.72 121.33 145.14 C 121.38 133.86 121.39 122.57 121.32 111.29 Z" />
<path fill="#161314" d=" M 152.08 111.02 C 155.50 109.85 156.13 114.64 156.35 117.01 C 156.44 121.70 156.99 127.67 153.00 130.99 C 150.30 131.78 149.57 128.23 149.17 126.28 C 148.76 121.20 148.12 114.93 152.08 111.02 Z" />
<path fill="#ffffff" d=" M 89.39 118.02 C 93.59 117.29 97.74 115.70 102.05 116.09 C 106.47 117.12 108.18 121.85 108.65 125.88 C 109.48 133.02 108.82 141.20 103.74 146.75 C 100.03 150.65 94.27 150.57 89.40 151.76 C 89.46 140.52 89.46 129.27 89.39 118.02 Z" />
<path fill="#161314" d=" M 128.25 116.05 C 132.87 115.28 133.75 120.58 133.80 123.98 C 133.70 128.77 133.37 134.92 128.28 137.17 C 128.07 130.13 128.11 123.09 128.25 116.05 Z" />
<path fill="#161314" d=" M 14.82 116.94 C 15.11 117.04 15.69 117.25 15.97 117.36 C 16.16 117.52 16.53 117.85 16.71 118.01 C 16.77 118.45 16.90 119.33 16.96 119.77 L 16.57 120.20 C 15.35 119.98 13.92 118.04 14.82 116.94 Z" />
<path fill="#ec1b16" d=" M 15.97 117.36 L 16.56 117.36 L 16.71 118.01 C 16.53 117.85 16.16 117.52 15.97 117.36 Z" />
<path fill="#ffffff" d=" M 16.56 117.36 C 20.94 117.34 25.30 118.78 29.11 120.87 C 35.14 125.10 36.13 133.24 35.99 140.04 C 35.82 144.78 34.70 150.84 29.79 152.87 C 25.38 153.64 21.19 151.60 17.00 150.58 C 17.00 148.75 17.00 146.92 17.00 145.10 L 17.00 143.56 C 17.00 143.09 16.99 142.15 16.99 141.68 C 16.98 141.10 16.98 139.95 16.97 139.38 C 16.97 139.02 16.95 138.30 16.95 137.93 L 16.96 135.81 C 16.96 135.25 16.95 134.14 16.94 133.59 L 16.96 131.92 C 16.97 131.60 16.97 130.98 16.97 130.66 C 16.98 130.05 17.00 128.81 17.01 128.20 C 17.01 127.86 17.01 127.19 17.01 126.85 C 17.01 126.22 17.02 124.95 17.02 124.32 C 17.02 123.99 17.02 123.33 17.02 123.00 C 17.00 122.19 16.98 120.58 16.96 119.77 C 16.90 119.33 16.77 118.45 16.71 118.01 L 16.56 117.36 Z" />
<path fill="#ec1b16" d=" M 278.19 118.24 C 278.77 118.81 278.77 118.81 278.19 118.24 Z" />
<path fill="#ffffff" d=" M 79.03 119.61 C 81.36 119.22 83.71 118.90 86.04 118.52 C 86.04 129.78 86.03 141.03 86.05 152.29 C 83.71 152.69 81.36 153.04 79.01 153.40 C 79.09 142.14 79.06 130.88 79.03 119.61 Z" />
<path fill="#161314" d=" M 14.16 120.28 C 15.51 120.35 16.47 121.88 17.02 123.00 C 17.02 123.33 17.02 123.99 17.02 124.32 L 16.64 124.45 C 15.25 123.64 14.21 121.86 14.16 120.28 Z" />
<path fill="#ffffff" d=" M 69.84 120.96 C 72.39 120.65 74.94 120.31 77.49 119.94 C 74.98 131.56 72.54 143.20 69.95 154.81 C 67.66 154.94 65.37 155.09 63.08 155.29 C 60.69 144.27 58.32 133.24 55.91 122.22 C 58.45 122.04 61.00 121.85 63.54 121.60 C 64.49 128.55 65.64 135.48 66.46 142.45 C 67.85 135.33 68.60 128.10 69.84 120.96 Z" />
<path fill="#ffffff" d=" M 42.94 122.00 C 45.23 122.00 47.53 122.02 49.82 122.05 C 52.53 133.40 54.97 144.81 57.67 156.17 C 55.11 156.02 52.54 155.96 49.97 155.97 C 49.63 153.71 49.22 151.47 48.86 149.22 C 47.08 149.18 45.31 149.13 43.53 149.11 C 43.17 151.36 42.88 153.63 42.53 155.89 C 40.11 155.77 37.68 155.68 35.25 155.58 C 37.81 144.39 40.34 133.19 42.94 122.00 Z" />
<path fill="#161314" d=" M 96.44 122.89 C 100.51 122.29 101.78 126.73 101.82 129.90 C 102.00 134.92 101.88 141.71 96.38 143.92 C 96.36 136.91 96.28 129.90 96.44 122.89 Z" />
<path fill="#161314" d=" M 14.17 124.16 C 15.53 124.13 16.50 125.74 17.01 126.85 C 17.01 127.19 17.01 127.86 17.01 128.20 L 16.65 128.33 C 15.31 127.47 14.23 125.75 14.17 124.16 Z" />
<path fill="#161314" d=" M 23.83 125.12 C 28.90 127.18 29.19 133.33 29.02 138.01 C 28.99 141.41 28.19 146.26 23.85 146.36 C 23.75 139.28 23.77 132.20 23.83 125.12 Z" />
<path fill="#161314" d=" M 14.17 127.92 C 15.53 127.89 16.44 129.58 16.97 130.66 C 16.97 130.98 16.97 131.60 16.96 131.92 L 16.62 132.02 C 15.23 131.26 14.09 129.52 14.17 127.92 Z" />
<path fill="#161314" d=" M 14.26 131.80 C 15.49 131.76 16.39 132.36 16.94 133.59 C 16.95 134.14 16.96 135.25 16.96 135.81 L 16.64 135.93 C 15.32 135.14 14.01 133.37 14.26 131.80 Z" />
<path fill="#161314" d=" M 44.54 143.00 C 45.08 139.35 45.68 135.70 46.43 132.09 C 46.88 135.74 47.28 139.40 48.03 143.00 C 47.16 143.00 45.41 143.00 44.54 143.00 Z" />
<path fill="#161314" d=" M 14.33 135.84 C 15.51 135.99 16.38 136.69 16.95 137.93 C 16.95 138.30 16.97 139.02 16.97 139.38 L 16.59 139.47 C 15.42 138.67 14.36 137.28 14.33 135.84 Z" />
<path fill="#8b8c90" d=" M 244.26 136.01 C 245.46 136.13 246.66 136.25 247.86 136.38 C 244.71 161.01 232.40 184.38 213.49 200.54 C 195.25 216.36 171.16 225.48 146.96 225.10 C 122.80 225.38 98.77 216.21 80.60 200.34 C 70.17 191.35 61.76 180.13 55.68 167.79 C 57.10 167.73 58.52 167.67 59.94 167.62 C 70.78 189.35 89.95 206.78 112.71 215.30 C 136.27 224.30 163.32 223.65 186.41 213.51 C 206.95 204.59 224.22 188.37 234.34 168.39 C 239.54 158.29 242.77 147.26 244.26 136.01 Z" />
<path fill="#ffffff" d=" M 214.24 138.15 C 217.28 137.84 220.31 137.46 223.33 137.01 C 219.70 154.25 210.08 170.17 196.33 181.22 C 181.29 193.56 161.47 199.79 142.07 198.29 C 118.68 196.95 96.58 183.95 83.41 164.68 C 86.48 164.14 89.55 163.63 92.60 163.02 C 103.15 176.68 118.90 186.27 135.97 189.01 C 151.55 191.76 168.04 188.68 181.73 180.79 C 197.70 171.66 209.61 155.94 214.24 138.15 Z" />
<path fill="#161314" d=" M 211.79 138.47 C 212.61 138.36 213.42 138.26 214.24 138.15 C 209.61 155.94 197.70 171.66 181.73 180.79 C 168.04 188.68 151.55 191.76 135.97 189.01 C 118.90 186.27 103.15 176.68 92.60 163.02 C 93.24 162.91 94.51 162.69 95.15 162.58 C 110.48 181.76 136.85 191.88 160.94 186.08 C 150.95 185.09 141.18 182.71 131.77 179.25 C 127.62 180.01 123.37 180.37 119.16 179.91 C 116.38 179.51 114.11 177.75 112.04 175.99 C 107.04 171.78 102.32 167.20 98.39 161.96 C 106.08 160.54 113.73 158.87 121.33 157.05 C 124.43 158.50 127.47 160.22 130.83 161.03 C 137.57 158.09 143.64 153.82 150.18 150.49 C 152.24 149.84 154.38 149.52 156.50 149.15 C 148.67 154.28 140.53 158.91 132.27 163.30 C 132.89 168.06 133.27 172.85 133.93 177.60 C 142.12 180.17 150.41 183.01 159.06 183.30 C 161.63 183.64 163.83 182.16 165.98 181.01 C 171.16 178.08 176.46 175.35 181.65 172.42 C 182.35 165.99 181.45 159.56 180.12 153.28 C 173.26 152.07 166.58 150.02 159.81 148.40 C 169.35 146.02 179.03 144.30 188.64 142.22 C 186.44 145.55 184.20 148.85 182.02 152.20 C 183.86 158.56 184.47 165.18 183.98 171.78 C 186.86 171.11 189.76 170.48 192.66 169.90 C 201.77 161.41 208.37 150.43 211.79 138.47 Z" />
<path fill="#161314" d=" M 14.18 139.40 C 15.46 139.24 16.50 140.64 16.99 141.68 C 16.99 142.15 17.00 143.09 17.00 143.56 C 15.34 143.56 14.08 140.92 14.18 139.40 Z" />
<path fill="#ffffff" d=" M 188.64 142.22 C 196.32 140.78 204.04 139.48 211.79 138.47 C 208.37 150.43 201.77 161.41 192.66 169.90 C 189.76 170.48 186.86 171.11 183.98 171.78 C 184.47 165.18 183.86 158.56 182.02 152.20 C 184.20 148.85 186.44 145.55 188.64 142.22 Z" />
<path fill="#ec1b16" d=" M 278.21 141.06 C 278.83 141.66 278.83 141.66 278.21 141.06 Z" />
<path fill="#ffffff" d=" M 221.67 154.54 C 223.24 150.98 223.42 146.11 227.13 144.02 C 229.17 143.44 230.34 145.40 231.54 146.64 C 232.46 146.07 233.36 145.46 234.30 144.91 C 235.91 145.94 238.43 146.56 238.36 148.93 C 237.97 152.50 236.58 155.92 235.00 159.12 C 230.48 157.83 226.15 155.96 221.67 154.54 Z" />
<path fill="#ffffff" d=" M 156.50 149.15 C 157.51 148.63 158.66 148.29 159.81 148.40 C 166.58 150.02 173.26 152.07 180.12 153.28 C 181.45 159.56 182.35 165.99 181.65 172.42 C 176.46 175.35 171.16 178.08 165.98 181.01 C 163.83 182.16 161.63 183.64 159.06 183.30 C 150.41 183.01 142.12 180.17 133.93 177.60 C 133.27 172.85 132.89 168.06 132.27 163.30 C 140.53 158.91 148.67 154.28 156.50 149.15 Z" />
<path fill="#ec1b16" d=" M 227.27 147.89 C 227.77 148.17 228.77 148.75 229.26 149.03 C 229.14 149.88 228.91 151.58 228.79 152.43 C 227.84 151.96 226.89 151.50 225.94 151.04 C 226.05 149.89 226.50 148.84 227.27 147.89 Z" />
<path fill="#ec1b16" d=" M 232.29 149.88 C 233.31 149.89 234.31 149.90 235.33 149.97 C 234.84 151.39 234.50 152.87 234.40 154.38 C 233.26 153.91 232.12 153.44 230.98 152.97 C 231.42 151.94 231.85 150.91 232.29 149.88 Z" />
<path fill="#ffffff" d=" M 121.33 157.05 C 130.94 154.85 140.52 152.44 150.18 150.49 C 143.64 153.82 137.57 158.09 130.83 161.03 C 127.47 160.22 124.43 158.50 121.33 157.05 Z" />
<path fill="#ffffff" d=" M 219.12 159.86 C 222.05 161.94 225.43 163.53 227.82 166.29 C 230.28 170.77 226.69 176.63 222.09 177.94 C 217.60 178.47 214.40 174.39 210.73 172.46 C 211.58 171.21 212.39 169.94 213.19 168.67 C 215.93 170.63 218.79 172.40 221.80 173.91 C 222.93 172.81 224.41 171.84 224.58 170.11 C 222.99 166.90 219.29 165.65 216.59 163.55 C 217.43 162.32 218.28 161.09 219.12 159.86 Z" />
<path fill="#ffffff" d=" M 95.15 162.58 C 96.23 162.36 97.31 162.15 98.39 161.96 C 102.32 167.20 107.04 171.78 112.04 175.99 C 114.11 177.75 116.38 179.51 119.16 179.91 C 123.37 180.37 127.62 180.01 131.77 179.25 C 141.18 182.71 150.95 185.09 160.94 186.08 C 136.85 191.88 110.48 181.76 95.15 162.58 Z" />
<path fill="#ffffff" d=" M 76.30 172.13 C 76.69 170.82 77.87 169.99 78.72 168.99 C 79.55 169.00 81.19 169.01 82.01 169.01 C 84.24 170.66 85.68 173.03 86.69 175.57 C 85.73 176.36 84.77 177.15 83.80 177.94 C 83.06 176.27 83.04 172.37 80.41 173.09 C 80.42 176.33 82.65 181.00 78.56 182.63 C 74.35 184.03 71.79 179.14 70.38 175.95 C 71.36 175.10 72.34 174.25 73.32 173.40 C 73.86 175.61 74.77 177.70 76.25 179.45 C 77.41 177.08 76.26 174.58 76.30 172.13 Z" />
<path fill="#ffffff" d=" M 203.47 179.67 C 206.04 182.20 208.59 184.75 211.04 187.39 C 212.50 185.83 214.02 184.33 215.59 182.89 C 216.46 183.74 217.34 184.61 218.21 185.47 C 215.53 187.93 212.96 190.50 210.40 193.09 C 207.03 189.64 203.65 186.21 200.28 182.78 C 201.34 181.75 202.40 180.71 203.47 179.67 Z" />
<path fill="#ffffff" d=" M 89.33 182.28 C 94.34 180.71 100.03 184.88 100.54 189.99 C 100.63 192.74 98.99 195.36 96.67 196.77 C 90.89 199.96 82.68 193.42 84.84 187.08 C 85.45 184.87 87.26 183.16 89.33 182.28 Z" />
<path fill="#ec1b16" d=" M 91.40 186.33 C 94.05 185.29 97.48 189.03 95.50 191.54 C 94.12 194.67 88.94 193.16 88.88 189.97 C 88.56 188.32 90.07 186.99 91.40 186.33 Z" />
<path fill="#ffffff" d=" M 187.75 192.64 C 189.47 189.35 193.18 188.13 196.42 186.91 C 197.13 188.04 197.85 189.18 198.58 190.32 C 196.02 190.83 192.70 191.26 191.80 194.17 C 190.69 196.67 193.38 199.71 196.00 199.00 C 198.42 198.45 199.75 196.16 201.30 194.45 C 201.94 195.58 202.59 196.73 203.25 197.87 C 200.95 200.13 198.46 202.85 195.02 203.05 C 189.68 204.03 184.99 197.28 187.75 192.64 Z" />
<path fill="#ffffff" d=" M 104.22 204.67 C 101.14 200.13 105.50 192.91 111.03 193.86 C 114.26 193.87 116.73 196.18 119.18 197.98 C 118.65 199.18 118.12 200.40 117.61 201.62 C 115.66 199.24 113.08 197.50 109.87 197.72 C 108.71 199.18 107.07 200.96 108.10 202.97 C 109.45 205.70 112.86 205.87 115.49 206.26 C 114.90 207.33 114.32 208.41 113.73 209.48 C 110.15 209.03 106.25 207.91 104.22 204.67 Z" />
<path fill="#ffffff" d=" M 126.45 200.44 C 130.06 199.03 133.73 200.90 136.95 202.42 C 136.62 203.67 136.29 204.92 135.96 206.17 C 134.12 205.01 132.24 203.46 129.90 203.91 C 127.14 203.89 125.41 207.41 127.12 209.61 C 129.07 212.12 132.51 211.37 135.22 211.02 C 134.82 212.35 134.42 213.68 134.01 215.01 C 130.45 215.06 126.37 214.93 123.73 212.19 C 120.23 208.79 121.82 201.98 126.45 200.44 Z" />
<path fill="#ffffff" d=" M 158.95 201.46 C 162.91 201.11 168.28 197.88 171.37 201.69 C 172.90 203.30 171.78 205.42 171.19 207.17 C 172.80 208.91 174.30 210.74 175.72 212.64 C 174.14 212.91 172.55 213.19 170.98 213.48 C 169.41 211.44 167.85 209.16 165.17 208.56 C 165.51 210.61 165.92 212.65 166.38 214.68 C 164.92 214.91 163.47 215.15 162.02 215.40 C 160.93 210.77 159.97 206.11 158.95 201.46 Z" />
<path fill="#ffffff" d=" M 142.49 202.01 C 146.05 201.99 149.61 202.00 153.17 202.00 C 153.19 202.75 153.23 204.25 153.25 205.00 C 151.14 205.00 149.03 205.00 146.91 205.00 C 146.99 205.65 147.14 206.97 147.22 207.62 C 149.18 207.50 151.14 207.37 153.11 207.23 C 153.11 208.02 153.11 209.59 153.11 210.37 C 151.13 210.40 149.14 210.44 147.16 210.48 C 147.14 211.18 147.08 212.57 147.05 213.27 C 149.22 213.18 151.38 213.09 153.54 213.01 C 153.59 213.82 153.68 215.46 153.73 216.27 C 150.11 216.27 146.48 216.36 142.86 216.44 C 142.88 211.62 142.71 206.81 142.49 202.01 Z" />
<path fill="#ec1b16" d=" M 164.01 203.32 C 164.80 203.20 166.37 202.97 167.16 202.85 C 168.60 205.15 166.53 206.13 164.59 206.68 C 164.39 205.55 164.19 204.43 164.01 203.32 Z" />
</svg>
